<svg width="24" height="24" viewBox="0 0 24 24" fill="none" xmlns="http://www.w3.org/2000/svg">
<g id="&#208;&#179;&#208;&#187;&#208;&#176;&#208;&#183; &#208;&#183;&#208;&#176;&#208;&#186;&#209;&#128;&#209;&#139;&#209;&#130;" clip-path="url(#clip0_3124_15647)">
<path id="Vector" d="M3.75 12.8076L1 15.2622M20.25 12.8076L23 15.2622M14.75 15.8531L16.125 18.8076M9.25 15.8531L7.875 18.8076" stroke="black" stroke-width="1.5" stroke-linecap="round" stroke-linejoin="round"/>
<path id="Vector_2" d="M22.5366 7.50185C22.5973 7.31993 22.7305 7.16858 22.9071 7.08098C23.0837 6.99339 23.2892 6.97668 23.4786 7.03454C23.8686 7.15569 24.0906 7.55954 23.9646 7.94031L23.964 7.94204C23.9106 8.09608 20.9051 16.8076 11.9994 16.8076C3.09547 16.8076 0.0893061 8.09608 0.0365031 7.94204L0.0359032 7.94031C-0.0901038 7.55954 0.125908 7.15569 0.52193 7.03454C0.917952 6.91339 1.33798 7.12108 1.46398 7.50185C1.57199 7.82493 4.17013 15.3653 12.0006 15.3653C19.831 15.3653 22.4285 7.82493 22.5366 7.50185Z" fill="black"/>
</g>
<defs>
<clipPath id="clip0_3124_15647">
<rect width="24" height="24" fill="white"/>
</clipPath>
</defs>
</svg>
