<svg width="24" height="24" viewBox="0 0 24 24" fill="none" xmlns="http://www.w3.org/2000/svg">
<g id="&#208;&#179;&#208;&#187;&#208;&#176;&#208;&#183; &#208;&#190;&#209;&#130;&#208;&#186;&#209;&#128;&#209;&#139;&#209;&#130;">
<path id="Vector" d="M22.5366 13.3058C22.5973 13.4877 22.7305 13.639 22.9071 13.7266C23.0837 13.8142 23.2892 13.8309 23.4786 13.7731C23.8686 13.6519 24.0906 13.2481 23.9646 12.8673L23.964 12.8656C23.9106 12.7115 20.9051 4 11.9994 4C3.09547 4 0.0893061 12.7115 0.0365031 12.8656L0.0359032 12.8673C-0.0901038 13.2481 0.125908 13.6519 0.52193 13.7731C0.917952 13.8942 1.33798 13.6865 1.46398 13.3058C1.57199 12.9827 4.17013 5.44231 12.0006 5.44231C19.831 5.44231 22.4285 12.9827 22.5366 13.3058ZM8.09975 13.8077C8.09975 12.8131 8.51067 11.8593 9.2421 11.156C9.97353 10.4528 10.9656 10.0577 12 10.0577C13.0344 10.0577 14.0264 10.4528 14.7578 11.156C15.4893 11.8593 15.9002 12.8131 15.9002 13.8077C15.9002 14.8023 15.4893 15.7561 14.7578 16.4593C14.0264 17.1626 13.0344 17.5577 12 17.5577C10.9656 17.5577 9.97353 17.1626 9.2421 16.4593C8.51067 15.7561 8.09975 14.8023 8.09975 13.8077ZM12 8.61538C10.5677 8.61538 9.19413 9.16243 8.18138 10.1362C7.16863 11.1099 6.59967 12.4306 6.59967 13.8077C6.59967 15.1848 7.16863 16.5055 8.18138 17.4792C9.19413 18.453 10.5677 19 12 19C13.4322 19 14.8058 18.453 15.8186 17.4792C16.8313 16.5055 17.4003 15.1848 17.4003 13.8077C17.4003 12.4306 16.8313 11.1099 15.8186 10.1362C14.8058 9.16243 13.4322 8.61538 12 8.61538Z" fill="black"/>
</g>
</svg>
